<svg xmlns="http://www.w3.org/2000/svg" viewBox="0 0 1200 850" role="img" aria-label="Shilpon clothing collection illustration"><defs><linearGradient id="bg" x2="0.9" y2="1"><stop stop-color="#e5e6d9"/><stop offset="1" stop-color="#b6c1a9"/></linearGradient><linearGradient id="light" x2="0" y2="1"><stop stop-color="#faf7ec"/><stop offset="1" stop-color="#ddd7c7"/></linearGradient></defs><rect width="1200" height="850" fill="url(#bg)"/><circle cx="955" cy="282" r="208" fill="#f5edda" opacity=".58"/><path d="M0 740c265-50 855 46 1200-8v118H0z" fill="#8b927d" opacity=".34"/><path d="M99 125h587" stroke="#66755e" stroke-width="8" stroke-linecap="round"/><path d="M160 129c0 31 51 37 52 66M354 129c0 31 51 37 52 66M549 129c0 31 51 37 52 66" fill="none" stroke="#66755e" stroke-width="6"/><path d="M147 194h417" stroke="#68745e" stroke-width="5" stroke-linecap="round"/><path d="M203 197v47m195-47v47m195-47v47" stroke="#8e866f" stroke-width="5"/><path d="M169 260c17 8 57 8 75 0l45 78-29 236c-24 17-84 17-108 0l-28-236z" fill="#d7d1be"/><path d="M169 260c10 17 28 27 38 27s28-10 37-27l44 78-36 41-26-29-20 35-20-35-28 29-35-41z" fill="#eee8d8"/><path d="M226 288v246" stroke="#b5ad9b" stroke-width="3"/><circle cx="232" cy="351" r="3" fill="#7d826c"/><circle cx="232" cy="374" r="3" fill="#7d826c"/><circle cx="232" cy="397" r="3" fill="#7d826c"/><path d="M354 260c20 8 57 8 76 0l51 70-35 66-27-22-7 185c-27 20-97 20-125 0l-7-185-27 22-35-66 51-70" fill="#536e5c"/><path d="M354 260c9 17 25 27 38 27s29-10 38-27l51 70-35 66-27-22-7 185h-42l-7-185-27 22-35-66z" fill="#64816b"/><path d="m354 290 30 38 30-38" fill="none" stroke="#d5d5c5" stroke-width="4"/><path d="M388 329v194" stroke="#47634f" stroke-width="3"/><path d="M544 260c19 8 58 8 77 0l52 76-28 55-28-23-12 196c-27 20-98 20-126 0l-11-196-29 23-28-55 52-76" fill="#bd765c"/><path d="M544 260c8 17 25 27 38 27 12 0 29-10 39-27l52 76-28 55-28-23-12 196h-43l-11-196-29 23-28-55z" fill="#c98468"/><path d="m544 290 38 40 39-40M582 330v194" fill="none" stroke="#e5c9b2" stroke-width="4"/><path d="M789 475c-5-77 47-138 130-138 83 0 134 61 129 138l-25 211c-54 36-151 36-209 0z" fill="#e6dfcf"/><path d="M835 365c17 35 47 56 84 56 36 0 66-21 84-56" fill="none" stroke="#d3cbb9" stroke-width="7"/><path d="m835 385 22 16m146-16-22 16" stroke="#d3cbb9" stroke-width="6"/><path d="M848 490h162" stroke="#c7bda8" stroke-width="4"/><rect x="824" y="554" width="229" height="54" rx="27" fill="#d4dcc9"/><text x="938" y="589" text-anchor="middle" font-family="Georgia,serif" font-size="23" letter-spacing="5" fill="#314c3a">SHILPON</text><image href="/images/shilpon-logo.png" x="996" y="680" width="78" height="78" preserveAspectRatio="xMidYMid meet"/><text x="90" y="684" font-family="Georgia,serif" font-size="20" letter-spacing="3" fill="#53624e">DRESS FOR YOUR EVERYDAY</text><text x="90" y="719" font-family="sans-serif" font-size="13" letter-spacing="2" fill="#66715f">MEN · WOMEN · BOYS · GIRLS</text></svg>
